<svg width="121" height="21" viewBox="0 0 121 21" fill="none" xmlns="http://www.w3.org/2000/svg">
<path d="M0.672363 20V2.49512H12.6475V5.48584H4.41992V9.95361H11.8906V12.9321H4.41992V17.0093H13.0259V20H0.672363ZM22.1079 17.29C22.8322 17.29 23.4832 17.111 24.061 16.7529C24.6388 16.3949 25.0864 15.8822 25.4038 15.2148L28.6265 16.521C28.0568 17.644 27.182 18.5392 26.002 19.2065C24.8138 19.8657 23.5158 20.1953 22.1079 20.1953C20.7407 20.1953 19.4956 19.9105 18.3726 19.3408C17.2576 18.7712 16.3625 17.9492 15.687 16.875C15.0034 15.7845 14.6616 14.5353 14.6616 13.1274C14.6616 11.7033 15.0034 10.45 15.687 9.36768C16.3706 8.27718 17.2739 7.45117 18.397 6.88965C19.52 6.32812 20.757 6.04736 22.1079 6.04736C23.5158 6.04736 24.8138 6.37695 26.002 7.03613C27.182 7.70345 28.0568 8.59863 28.6265 9.72168L25.4038 11.04C25.0864 10.3727 24.6388 9.86003 24.061 9.50195C23.4832 9.14388 22.8322 8.96484 22.1079 8.96484C21.0011 8.96484 20.0693 9.3514 19.3125 10.1245C18.5475 10.8895 18.165 11.8864 18.165 13.1152C18.165 14.3522 18.5475 15.3532 19.3125 16.1182C20.0693 16.8994 21.0011 17.29 22.1079 17.29ZM37.6841 20.1953C36.3169 20.1953 35.0718 19.9105 33.9487 19.3408C32.8338 18.7712 31.9386 17.9492 31.2632 16.875C30.5796 15.7845 30.2378 14.5353 30.2378 13.1274C30.2378 11.7033 30.5796 10.45 31.2632 9.36768C31.9468 8.27718 32.8501 7.45117 33.9731 6.88965C35.0962 6.32812 36.3332 6.04736 37.6841 6.04736C39.0431 6.04736 40.2801 6.33219 41.395 6.90186C42.5181 7.47152 43.4214 8.29346 44.105 9.36768C44.7886 10.45 45.1304 11.7033 45.1304 13.1274C45.1304 14.5353 44.7886 15.7845 44.105 16.875C43.4051 17.9736 42.4977 18.7996 41.3828 19.353C40.2598 19.9146 39.0269 20.1953 37.6841 20.1953ZM37.6841 17.2168C38.7746 17.2168 39.7064 16.8302 40.4795 16.0571C41.2445 15.2922 41.627 14.3115 41.627 13.1152C41.627 11.9271 41.2445 10.9505 40.4795 10.1855C39.7145 9.42057 38.7827 9.03809 37.6841 9.03809C36.5773 9.03809 35.6455 9.42057 34.8887 10.1855C34.1237 10.9505 33.7412 11.9271 33.7412 13.1152C33.7412 14.3115 34.1237 15.2922 34.8887 16.0571C35.6455 16.8302 36.5773 17.2168 37.6841 17.2168ZM57.3862 2.49512H61.4756L56.1167 11.2476L61.4756 20H57.3862L53.4189 13.6646L49.4395 20H45.3501L50.7212 11.2476L45.3501 2.49512H49.4395L53.4189 8.84277L57.3862 2.49512ZM69.1538 17.29C69.8781 17.29 70.5291 17.111 71.1069 16.7529C71.6847 16.3949 72.1323 15.8822 72.4497 15.2148L75.6724 16.521C75.1027 17.644 74.2279 18.5392 73.0479 19.2065C71.8597 19.8657 70.5617 20.1953 69.1538 20.1953C67.7866 20.1953 66.5415 19.9105 65.4185 19.3408C64.3035 18.7712 63.4084 17.9492 62.7329 16.875C62.0493 15.7845 61.7075 14.5353 61.7075 13.1274C61.7075 11.7033 62.0493 10.45 62.7329 9.36768C63.4165 8.27718 64.3198 7.45117 65.4429 6.88965C66.5659 6.32812 67.8029 6.04736 69.1538 6.04736C70.5617 6.04736 71.8597 6.37695 73.0479 7.03613C74.2279 7.70345 75.1027 8.59863 75.6724 9.72168L72.4497 11.04C72.1323 10.3727 71.6847 9.86003 71.1069 9.50195C70.5291 9.14388 69.8781 8.96484 69.1538 8.96484C68.047 8.96484 67.1152 9.3514 66.3584 10.1245C65.5934 10.8895 65.2109 11.8864 65.2109 13.1152C65.2109 14.3522 65.5934 15.3532 66.3584 16.1182C67.1152 16.8994 68.047 17.29 69.1538 17.29ZM91.7734 20H88.2578V13.1274C88.2578 11.7603 88.0015 10.7389 87.4888 10.0635C86.9761 9.37988 86.1704 9.03809 85.0718 9.03809C83.9813 9.03809 83.0983 9.41243 82.4229 10.1611C81.7474 10.9098 81.4097 11.8986 81.4097 13.1274V20H77.894V1.25H81.4097V8.26904C81.8084 7.56104 82.4269 7.01579 83.2651 6.6333C84.1034 6.24268 85.1003 6.04736 86.2559 6.04736C88.209 6.04736 89.6169 6.65365 90.4795 7.86621C91.3421 9.07064 91.7734 10.8244 91.7734 13.1274V20Z" fill="#153031"/>
<path d="M96.0093 20.1953C95.4478 20.1953 94.9798 20 94.6055 19.6094C94.223 19.2269 94.0317 18.763 94.0317 18.2178C94.0317 17.6807 94.223 17.2209 94.6055 16.8384C94.988 16.4559 95.4559 16.2646 96.0093 16.2646C96.5545 16.2646 97.0184 16.4559 97.4009 16.8384C97.7752 17.2209 97.9624 17.6847 97.9624 18.23C97.9624 18.7834 97.7752 19.2472 97.4009 19.6216C97.0184 20.0041 96.5545 20.1953 96.0093 20.1953ZM101.979 4.44824C101.393 4.44824 100.896 4.24479 100.489 3.83789C100.082 3.43099 99.8789 2.93457 99.8789 2.34863C99.8789 1.77897 100.082 1.29069 100.489 0.883789C100.896 0.476888 101.393 0.273438 101.979 0.273438C102.548 0.273438 103.036 0.476888 103.443 0.883789C103.85 1.29069 104.054 1.77897 104.054 2.34863C104.054 2.93457 103.85 3.43099 103.443 3.83789C103.036 4.24479 102.548 4.44824 101.979 4.44824ZM100.208 20V6.25488H103.724V20H100.208ZM113.27 20.1953C111.903 20.1953 110.658 19.9105 109.535 19.3408C108.42 18.7712 107.525 17.9492 106.849 16.875C106.166 15.7845 105.824 14.5353 105.824 13.1274C105.824 11.7033 106.166 10.45 106.849 9.36768C107.533 8.27718 108.436 7.45117 109.559 6.88965C110.682 6.32812 111.919 6.04736 113.27 6.04736C114.629 6.04736 115.866 6.33219 116.981 6.90186C118.104 7.47152 119.007 8.29346 119.691 9.36768C120.375 10.45 120.716 11.7033 120.716 13.1274C120.716 14.5353 120.375 15.7845 119.691 16.875C118.991 17.9736 118.084 18.7996 116.969 19.353C115.846 19.9146 114.613 20.1953 113.27 20.1953ZM113.27 17.2168C114.361 17.2168 115.292 16.8302 116.065 16.0571C116.83 15.2922 117.213 14.3115 117.213 13.1152C117.213 11.9271 116.83 10.9505 116.065 10.1855C115.3 9.42057 114.369 9.03809 113.27 9.03809C112.163 9.03809 111.231 9.42057 110.475 10.1855C109.71 10.9505 109.327 11.9271 109.327 13.1152C109.327 14.3115 109.71 15.2922 110.475 16.0571C111.231 16.8302 112.163 17.2168 113.27 17.2168Z" fill="#3AAC59"/>
</svg>
