<svg xmlns="http://www.w3.org/2000/svg" width="184" height="71" viewBox="0 0 184 71">
  <g id="Grupo_4" data-name="Grupo 4" transform="translate(-505 -218)">
    <g id="Grupo_2" data-name="Grupo 2">
      <rect id="Retângulo_22" data-name="Retângulo 22" width="87" height="71" transform="translate(548 218)" fill="#4a2359"/>
      <path id="Retângulo_23" data-name="Retângulo 23" d="M0,0H26.5A3.5,3.5,0,0,1,30,3.5v0A3.5,3.5,0,0,1,26.5,7H0A0,0,0,0,1,0,7V0A0,0,0,0,1,0,0Z" transform="translate(633 218)" fill="#4a2359"/>
      <path id="Retângulo_24" data-name="Retângulo 24" d="M0,0H34.5A3.5,3.5,0,0,1,38,3.5v0A3.5,3.5,0,0,1,34.5,7H0A0,0,0,0,1,0,7V0A0,0,0,0,1,0,0Z" transform="translate(633 230.5)" fill="#4a2359"/>
      <rect id="Retângulo_36" data-name="Retângulo 36" width="13" height="7" rx="3.5" transform="translate(676 230.5)" fill="#4a2359"/>
      <path id="Retângulo_25" data-name="Retângulo 25" d="M0,0H52.5A3.5,3.5,0,0,1,56,3.5v0A3.5,3.5,0,0,1,52.5,7H0A0,0,0,0,1,0,7V0A0,0,0,0,1,0,0Z" transform="translate(633 243)" fill="#4a2359"/>
      <path id="Retângulo_26" data-name="Retângulo 26" d="M0,0H33.5A3.5,3.5,0,0,1,37,3.5v0A3.5,3.5,0,0,1,33.5,7H0A0,0,0,0,1,0,7V0A0,0,0,0,1,0,0Z" transform="translate(633 256)" fill="#4a2359"/>
      <path id="Retângulo_27" data-name="Retângulo 27" d="M0,0H43.5A3.5,3.5,0,0,1,47,3.5v0A3.5,3.5,0,0,1,43.5,7H0A0,0,0,0,1,0,7V0A0,0,0,0,1,0,0Z" transform="translate(633 269)" fill="#4a2359"/>
      <path id="Subtração_4" data-name="Subtração 4" d="M-1965,11h-25V0h25V1h-.5a3.5,3.5,0,0,0-3.5,3.5,3.5,3.5,0,0,0,3.5,3.5h.5v3Z" transform="translate(2624 261)" fill="#4a2359"/>
      <path id="Retângulo_28" data-name="Retângulo 28" d="M0,0H19.5A3.5,3.5,0,0,1,23,3.5v0A3.5,3.5,0,0,1,19.5,7H0A0,0,0,0,1,0,7V0A0,0,0,0,1,0,0Z" transform="translate(633 282)" fill="#4a2359"/>
      <path id="Retângulo_29" data-name="Retângulo 29" d="M3.5,0H23a0,0,0,0,1,0,0V7a0,0,0,0,1,0,0H3.5A3.5,3.5,0,0,1,0,3.5v0A3.5,3.5,0,0,1,3.5,0Z" transform="translate(537 282)" fill="#4a2359"/>
      <path id="Retângulo_30" data-name="Retângulo 30" d="M3.5,0H29a0,0,0,0,1,0,0V7a0,0,0,0,1,0,0H3.5A3.5,3.5,0,0,1,0,3.5v0A3.5,3.5,0,0,1,3.5,0Z" transform="translate(531 269)" fill="#4a2359"/>
      <path id="Retângulo_31" data-name="Retângulo 31" d="M3.5,0H39a0,0,0,0,1,0,0V7a0,0,0,0,1,0,0H3.5A3.5,3.5,0,0,1,0,3.5v0A3.5,3.5,0,0,1,3.5,0Z" transform="translate(521 256)" fill="#4a2359"/>
      <path id="Retângulo_33" data-name="Retângulo 33" d="M3.5,0H55a0,0,0,0,1,0,0V7a0,0,0,0,1,0,0H3.5A3.5,3.5,0,0,1,0,3.5v0A3.5,3.5,0,0,1,3.5,0Z" transform="translate(505 243)" fill="#4a2359"/>
      <path id="Retângulo_34" data-name="Retângulo 34" d="M3.5,0H58a0,0,0,0,1,0,0V7a0,0,0,0,1,0,0H3.5A3.5,3.5,0,0,1,0,3.5v0A3.5,3.5,0,0,1,3.5,0Z" transform="translate(512 230)" fill="#4a2359"/>
      <path id="Retângulo_35" data-name="Retângulo 35" d="M3.5,0H43a0,0,0,0,1,0,0V7a0,0,0,0,1,0,0H3.5A3.5,3.5,0,0,1,0,3.5v0A3.5,3.5,0,0,1,3.5,0Z" transform="translate(527 218)" fill="#4a2359"/>
      <rect id="Retângulo_32" data-name="Retângulo 32" width="13" height="7" rx="3.5" transform="translate(505 256)" fill="#4a2359"/>
      <path id="Subtração_5" data-name="Subtração 5" d="M-1974,11h-16V0h16V1.5h-1.5A3.5,3.5,0,0,0-1979,5a3.5,3.5,0,0,0,3.5,3.5h1.5V11Z" transform="translate(2622 223)" fill="#4a2359"/>
      <path id="Subtração_6" data-name="Subtração 6" d="M-1980,10.15h-10V0h10V2.538h-1.259a2.744,2.744,0,0,0-2.74,2.74,2.744,2.744,0,0,0,2.74,2.741H-1980v2.13Z" transform="translate(2623 235)" fill="#4a2359"/>
      <path id="Subtração_7" data-name="Subtração 7" d="M-1967,12.5h-23V2.5h23V5a3,3,0,0,0-3,3,3,3,0,0,0,3,3v1.5Z" transform="translate(2625 245)" fill="#4a2359"/>
      <rect id="Retângulo_45" data-name="Retângulo 45" width="7" height="9" transform="translate(631 250)" fill="#4a2359"/>
      <path id="Subtração_8" data-name="Subtração 8" d="M-1980,12h-6V8h3.5a2.493,2.493,0,0,0,2.5-2.4l0,6.4Zm0-6.6a2.493,2.493,0,0,0-2.5-2.4h-3.5V0h6V5.4Z" transform="translate(2528 222)" fill="#4a2359"/>
      <path id="Subtração_9" data-name="Subtração 9" d="M-1963,14h-20V10a3,3,0,0,0,3-3,3,3,0,0,0-3-3V0h20V14Z" transform="translate(2513 233)" fill="#4a2359"/>
      <path id="Subtração_10" data-name="Subtração 10" d="M-1963,14h-20V10a3,3,0,0,0,3-3,3,3,0,0,0-3-3V0h20V14Z" transform="translate(2513 246)" fill="#4a2359"/>
      <path id="Subtração_11" data-name="Subtração 11" d="M-1963,14h-20V10a3,3,0,0,0,3-3,3,3,0,0,0-3-3V0h20V14Z" transform="translate(2523 259)" fill="#4a2359"/>
      <path id="Subtração_12" data-name="Subtração 12" d="M-1963,14h-20V10a3,3,0,0,0,3-3,3,3,0,0,0-3-3V0h20V14Z" transform="translate(2528 272)" fill="#4a2359"/>
    </g>
    <g id="Grupo_3" data-name="Grupo 3">
      <text id="Hero" transform="translate(544 249)" fill="#ffa77b" font-size="31" font-family="VersacedRegular, Versaced"><tspan x="0" y="0">Hero</tspan></text>
      <text id="Combine" transform="translate(556 279)" fill="#fff" font-size="31" font-family="VersacedRegular, Versaced"><tspan x="0" y="0">Combine</tspan></text>
    </g>
  </g>
</svg>
