<svg xmlns="http://www.w3.org/2000/svg" width="114.478" height="57.537" viewBox="0 0 114.478 57.537"><defs><style>.a,.b,.c{fill:#40b895;fill-rule:evenodd;}.b{opacity:0.963;}.c{opacity:0.921;}</style></defs><path class="a" d="M80.591,12.057H75.525a1,1,0,0,1-1-1.01V5.884a1,1,0,0,1,1-1.007h5.064a1,1,0,0,1,1,1.008l0,5.165a1,1,0,0,1-1,1.005m-6.747-7.18H70.4a.681.681,0,0,1-.678-.686V.684A.682.682,0,0,1,70.4,0h3.439a.682.682,0,0,1,.68.684V4.194a.681.681,0,0,1-.68.683" transform="translate(32.885)"/><g transform="translate(0 14.357)"><path class="b" d="M102.594,3.535V21.021a13.062,13.062,0,0,1-1.847,7.114c-2.35,3.72-6.9,5.7-13.374,5.7h-.047c-6.472,0-11.024-1.982-13.374-5.7A13.062,13.062,0,0,1,72.1,21.021V3.535C72.1.709,73.25.2,76.328.2h.97c3.079,0,4.224.511,4.224,3.336v6.611l0,.041v1.45l0,.147v9.238a4.968,4.968,0,0,0,.662,2.725c.839,1.3,2.5,1.894,5.16,1.9s4.321-.6,5.16-1.9a4.971,4.971,0,0,0,.662-2.725V11.785l0-.149v-1.45l0-.041V3.535C93.177.709,94.322.2,97.4.2h.97c3.079,0,4.224.511,4.224,3.336ZM68.947,10.271,63.222,33.336C61.544,40.1,58.677,43,53.327,43.352q-.195.017-.39.018c-1.154,0-1.517-.642-1.732-1.675l-.1-.447a1.737,1.737,0,0,1,.113-1.369c.265-.356.736-.461,1.464-.522,3.583-.371,4.8-2.04,5.993-5.823a6.26,6.26,0,0,1-1.981.294c-3.938,0-4.992-2.764-5.879-6.1l-4.727-17.44a1.9,1.9,0,0,1,.044-1.6,1.833,1.833,0,0,1,1.505-.459h.4a2.092,2.092,0,0,1,2.446,1.89L55.16,27.41c.6,2.159,1.211,2.524,2.73,2.524,1.239,0,1.963-.389,2.478-2.515L64.5,10.127a2.036,2.036,0,0,1,2.4-1.9h.447a1.86,1.86,0,0,1,1.507.453,1.918,1.918,0,0,1,.1,1.591Zm-28.888,11.7H34.551c-4.427,0-6.151,1.133-6.151,4.041,0,2.653,1.719,3.943,5.257,3.943,5.354,0,6.4-1.648,6.4-4.493Zm-6.4-14.474c7.245,0,10.767,2.678,10.767,8.19v9.925c0,5.7-3.305,8.238-10.717,8.238-6.237,0-9.672-2.783-9.672-7.838,0-5.21,3.326-7.638,10.468-7.638h5.555V15.682c0-3.014-1.8-4.243-6.2-4.243a26.451,26.451,0,0,0-5.4.542,3.179,3.179,0,0,1-.762.112,1.072,1.072,0,0,1-.968-.472,2.187,2.187,0,0,1-.256-1.2v-.4c0-1.408.515-1.747,1.742-2.016A26.2,26.2,0,0,1,33.657,7.5Zm-14,3.344c0,4.15-1.052,6.4-6.6,6.4H4.515V6.525c0-1.485.547-2.037,2.022-2.037h6.519c4.179,0,6.6,1.039,6.6,6.349ZM13.056.19H5.691C1.756.191,0,1.96,0,5.925V31.389c0,1.531.489,2.024,2.009,2.024h.5c1.52,0,2.009-.492,2.009-2.024V21.482h8.541c7.582,0,11.114-3.382,11.114-10.644S20.638.19,13.056.19Z" transform="translate(0 -0.19)"/></g><path class="c" d="M74.684,17.858l-6.818,0A1.351,1.351,0,0,1,66.521,16.5l0-6.952a1.351,1.351,0,0,1,1.347-1.357l6.818,0a1.35,1.35,0,0,1,1.345,1.357V16.5a1.35,1.35,0,0,1-1.348,1.354" transform="translate(31.374 3.862)"/></svg>